<?xml version="1.0" encoding="utf-8"?>
<svg viewBox="0 0 338.971 338.262" xmlns="http://www.w3.org/2000/svg">
  <g transform="matrix(1, 0, 0, 1, -488.55401611328125, 38.83295440673825)">
    <ellipse style="stroke: rgb(0, 0, 0); stroke-width: 0px;" cx="658.054" cy="224.847" rx="150" ry="74.3"/>
    <rect x="508.066" y="175.985" width="299.992" height="50" style="stroke: rgb(0, 0, 0); stroke-width: 0px;"/>
    <ellipse style="stroke: rgb(255, 254, 254); stroke-width: 0px; fill: rgb(255, 255, 255);" cx="658.066" cy="177.023" rx="150" ry="74.3"/>
  </g>
  <g transform="matrix(1, 0, 0, 1, -488.55401611328125, -23.722991943359403)">
    <ellipse style="stroke: rgb(0, 0, 0); stroke-width: 0px;" cx="658.054" cy="224.847" rx="150" ry="74.3"/>
    <rect x="508.066" y="175.985" width="299.992" height="50" style="stroke: rgb(0, 0, 0); stroke-width: 0px;"/>
    <ellipse style="stroke: rgb(255, 254, 254); stroke-width: 0px; fill: rgb(255, 255, 255);" cx="658.066" cy="177.023" rx="150" ry="74.3"/>
  </g>
  <g transform="matrix(1, 0, 0, 1, -488.55401611328125, -85.72299194335939)">
    <ellipse style="stroke: rgb(0, 0, 0); stroke-width: 0px;" cx="658.054" cy="224.847" rx="150" ry="74.3"/>
    <rect x="508.066" y="175.985" width="299.992" height="50" style="stroke: rgb(0, 0, 0); stroke-width: 0px;"/>
    <ellipse style="stroke: rgb(255, 254, 254); stroke-width: 0px; fill: rgb(255, 255, 255);" cx="658.066" cy="177.023" rx="150" ry="74.3"/>
  </g>
  <g style="" transform="matrix(1, 0, 0, 0.49518999457359314, -77.38323974609375, -49.99685668945314)">
    <ellipse style="stroke: rgb(0, 0, 0);" cx="246.852" cy="250.965" rx="150" ry="150"/>
    <path d="M 162.197 355.627 C 180.016 343.06 193.324 333.546 201.895 326.969 C 210.466 320.51 219.488 312.405 228.735 302.775 C 237.983 293.144 245.765 282.221 252.08 270.123 C 257.041 261.197 261.327 250.862 264.824 239.117 C 268.32 227.489 270.124 216.214 270.463 205.526 C 270.463 195.543 269.222 186.029 266.628 177.103 C 264.147 168.059 259.862 160.66 253.772 154.67 C 247.682 148.797 239.787 145.861 229.976 145.861 C 220.503 145.861 211.594 147.858 203.248 151.734 C 195.016 155.727 189.151 162.069 185.881 170.995 C 185.881 171.818 185.43 172.875 184.752 174.401 C 184.978 176.281 185.881 177.69 187.573 178.747 C 189.264 179.804 190.73 180.274 192.083 180.274 C 192.759 180.274 194.677 179.922 197.609 179.217 C 200.654 178.512 203.135 178.042 205.166 178.042 C 211.142 178.042 216.442 180.274 221.292 184.62 C 226.029 188.965 228.397 194.251 228.397 200.475 C 228.397 204.939 227.156 209.167 224.789 213.043 C 222.42 216.918 219.149 220.09 214.977 222.321 C 210.803 224.67 206.18 225.727 201.218 225.727 C 192.196 225.727 184.527 222.908 178.211 217.153 C 172.009 211.281 168.852 203.881 168.852 194.603 C 168.852 182.74 172.347 172.522 179.226 163.831 C 186.218 155.14 195.016 148.68 205.842 144.334 C 216.555 139.871 227.382 137.757 238.434 137.757 C 250.501 137.757 262.005 140.928 272.718 147.388 C 283.545 153.73 292.003 162.539 298.319 173.462 C 304.634 184.502 307.904 196.247 307.904 208.932 C 307.904 231.482 300.687 252.388 286.25 271.768 C 271.815 291.147 253.998 307.942 232.683 322.271 C 218.473 332.02 195.467 345.174 163.776 361.735 L 162.197 355.627 Z M 318.843 173.932 C 318.843 169.703 320.309 166.18 323.242 163.361 C 326.061 160.425 329.557 159.016 333.731 159.016 C 337.338 159.016 340.722 160.66 343.767 163.831 C 346.811 166.885 348.278 170.526 348.278 174.519 C 348.278 178.747 346.699 182.388 343.767 185.324 C 340.61 188.143 337.113 189.552 333.167 189.552 C 328.993 189.552 325.609 188.143 322.904 184.972 C 320.197 181.918 318.843 178.277 318.843 173.932 Z M 318.843 235.476 C 318.843 231.247 320.309 227.606 323.016 224.788 C 325.836 221.851 329.331 220.442 333.731 220.442 C 337.338 220.442 340.61 221.969 343.767 225.14 C 346.699 228.311 348.278 231.717 348.278 235.476 C 348.278 240.056 346.811 243.697 343.993 246.633 C 341.06 249.57 337.677 251.096 333.731 251.096 C 329.331 251.096 325.836 249.57 323.016 246.751 C 320.309 243.932 318.843 240.174 318.843 235.476 Z" style="stroke: rgb(0, 0, 0); stroke-width: 3; fill: rgb(255, 255, 255);"/>
  </g>
</svg>