<?xml version="1.0" encoding="utf-8"?>
<svg viewBox="3053.1659 149.6279 8268.0008 9527.8067" xmlns="http://www.w3.org/2000/svg">
  <defs>
    <style type="text/css" id="style6">
   
    .str1 {stroke:#131516;stroke-width:3}
    .str0 {stroke:#131516;stroke-width:42}
    .fil0 {fill:none}
    .fil1 {fill:#131516}
   
  </style>
  </defs>
  <path class="fil1 str1" d="M 1067.549 8306.972 C 1240.095 8190.122 1368.958 8101.665 1451.955 8040.509 C 1534.952 7980.446 1622.317 7905.094 1711.866 7815.544 C 1801.415 7725.995 1876.767 7624.434 1937.923 7511.951 C 1985.974 7428.954 2027.472 7332.853 2061.326 7223.647 C 2095.18 7115.533 2112.653 7010.695 2115.929 6911.317 C 2115.929 6818.492 2103.916 6730.035 2078.799 6647.038 C 2054.774 6562.949 2013.275 6494.149 1954.304 6438.454 C 1895.332 6383.851 1818.888 6356.549 1723.879 6356.549 C 1632.145 6356.549 1545.873 6375.114 1465.06 6411.152 C 1385.339 6448.283 1328.552 6507.254 1296.882 6590.251 C 1296.882 6597.895 1292.514 6607.724 1285.962 6621.92 C 1288.146 6639.393 1296.882 6652.498 1313.263 6662.327 C 1329.644 6672.155 1343.841 6676.524 1356.946 6676.524 C 1363.498 6676.524 1382.063 6673.247 1410.457 6666.695 C 1439.942 6660.143 1463.968 6655.774 1483.625 6655.774 C 1541.504 6655.774 1592.831 6676.524 1639.79 6716.93 C 1685.656 6757.336 1708.59 6806.479 1708.59 6864.358 C 1708.59 6905.857 1696.577 6945.171 1673.644 6981.209 C 1650.711 7017.247 1619.041 7046.733 1578.634 7067.482 C 1538.228 7089.323 1493.454 7099.152 1445.403 7099.152 C 1358.038 7099.152 1283.778 7072.942 1222.622 7019.431 C 1162.559 6964.828 1131.981 6896.028 1131.981 6809.755 C 1131.981 6699.457 1165.835 6604.447 1232.451 6523.635 C 1300.159 6442.822 1385.339 6382.759 1490.177 6342.352 C 1593.923 6300.854 1698.761 6281.197 1805.783 6281.197 C 1922.634 6281.197 2034.024 6310.683 2137.77 6370.746 C 2242.608 6429.717 2324.513 6511.622 2385.668 6613.184 C 2446.824 6715.838 2478.494 6825.044 2478.494 6942.987 C 2478.494 7152.663 2408.602 7347.05 2268.818 7527.24 C 2129.034 7707.43 1956.488 7863.595 1750.088 7996.827 C 1612.488 8087.468 1389.708 8209.779 1082.838 8363.76 L 1067.549 8306.972 Z M 2584.424 6617.552 C 2584.424 6578.238 2598.621 6545.476 2627.014 6519.267 C 2654.316 6491.965 2688.17 6478.86 2728.576 6478.86 C 2763.522 6478.86 2796.284 6494.149 2825.769 6523.635 C 2855.255 6552.028 2869.452 6585.882 2869.452 6623.012 C 2869.452 6662.327 2854.163 6696.181 2825.769 6723.482 C 2795.192 6749.692 2761.338 6762.796 2723.116 6762.796 C 2682.709 6762.796 2649.947 6749.692 2623.738 6720.206 C 2597.528 6691.812 2584.424 6657.958 2584.424 6617.552 Z M 2584.424 7189.793 C 2584.424 7150.479 2598.621 7116.625 2624.83 7090.415 C 2652.132 7063.114 2685.985 7050.009 2728.576 7050.009 C 2763.522 7050.009 2795.192 7064.206 2825.769 7093.691 C 2854.163 7123.177 2869.452 7154.847 2869.452 7189.793 C 2869.452 7232.383 2855.255 7266.237 2827.954 7293.539 C 2799.56 7320.84 2766.798 7335.037 2728.576 7335.037 C 2685.985 7335.037 2652.132 7320.84 2624.83 7294.631 C 2598.621 7268.421 2584.424 7233.475 2584.424 7189.793 Z" id="path19" style="fill:#131516;stroke:#131516;stroke-width:3" transform="matrix(4.588482856750488, 0, 0, 4.575038909912109, -1845.2641601562498, -28587.091796874996)"/>
</svg>