<svg viewBox="3053.166 149.628 8268.001 9527.807" xmlns="http://www.w3.org/2000/svg"><path d="M1067.549 8306.972c172.546-116.85 301.409-205.307 384.406-266.463 82.997-60.063 170.362-135.415 259.911-224.965 89.549-89.549 164.901-191.11 226.057-303.593 48.051-82.997 89.549-179.098 123.403-288.304 33.854-108.114 51.327-212.952 54.603-312.33 0-92.825-12.013-181.282-37.13-264.279-24.025-84.089-65.524-152.889-124.495-208.584-58.972-54.603-135.416-81.905-230.425-81.905-91.734 0-178.006 18.565-258.819 54.603-79.721 37.131-136.508 96.102-168.178 179.099 0 7.644-4.368 17.473-10.92 31.669 2.184 17.473 10.92 30.578 27.301 40.407s30.578 14.197 43.683 14.197c6.552 0 25.117-3.277 53.511-9.829 29.485-6.552 53.511-10.921 73.168-10.921 57.879 0 109.206 20.75 156.165 61.156q68.8 60.61 68.8 147.428c0 41.499-12.013 80.813-34.946 116.851s-54.603 65.524-95.01 86.273c-40.406 21.841-85.18 31.67-133.231 31.67-87.365 0-161.625-26.21-222.781-79.721-60.063-54.603-90.641-123.403-90.641-209.676 0-110.298 33.854-205.308 100.47-286.12 67.708-80.813 152.888-140.876 257.726-181.283 103.746-41.498 208.584-61.155 315.606-61.155 116.851 0 228.241 29.486 331.987 89.549 104.838 58.971 186.743 140.876 247.898 242.438 61.156 102.654 92.826 211.86 92.826 329.803 0 209.676-69.892 404.063-209.676 584.253s-312.33 336.355-518.73 469.587c-137.6 90.641-360.38 212.952-667.25 366.933zm1516.875-1689.42q0-58.971 42.59-98.285c27.302-27.302 61.156-40.407 101.562-40.407 34.946 0 67.708 15.289 97.193 44.775 29.486 28.393 43.683 62.247 43.683 99.377 0 39.315-15.289 73.169-43.683 100.47-30.577 26.21-64.431 39.314-102.653 39.314-40.407 0-73.169-13.104-99.378-42.59-26.21-28.394-39.314-62.248-39.314-102.654Zm0 572.241c0-39.314 14.197-73.168 40.406-99.378 27.302-27.301 61.155-40.406 103.746-40.406 34.946 0 66.616 14.197 97.193 43.682 28.394 29.486 43.683 61.156 43.683 96.102 0 42.59-14.197 76.444-41.498 103.746-28.394 27.301-61.156 41.498-99.378 41.498-42.591 0-76.444-14.197-103.746-40.406-26.209-26.21-40.406-61.156-40.406-104.838Z" style="fill:#000;stroke:#000;stroke-width:3" transform="matrix(4.58848 0 0 4.57504 -1845.264 -28587.092)"/></svg>